<svg xmlns="http://www.w3.org/2000/svg" width="580" height="400" onload="alert('XSS')"><g><title>background</title><rect fill="#fff" id="canvas_background" height="402" width="582" y="-1" x="-1"/><g display="none" overflow="visible" y="0" x="0" height="100%" width="100%" id="canvasGrid"><rect fill="url(#gridpattern)" stroke-width="0" y="0" x="0" height="100%" width="100%"/></g></g><g><title>Layer 1</title><path d="m110,54.4375c0,0 0,0 -2,0c-4,0 -9.892456,2.113663 -12,4c-4.771149,4.270382 -6.802925,7.009735 -7,9c-0.502449,5.074203 -1,7 -1,9c0,1 0,3 0,5c0,1 1.458801,1.693436 2,3c0.382683,0.923882 2,1 5,1c3,0 11,0 18,0c8,0 12.937965,-0.498291 19,-1c4.982956,-0.412399 9,0 13,0c4,0 7.186005,-0.307449 9,1c1.147263,0.826904 2,2 2,3c0,1 0.128189,3.089531 -2,6c-3.779465,5.168724 -10.171967,15.66819 -20,27c-7.412758,8.546982 -13.746742,14.371338 -18,17c-1.902115,1.175568 -3,2 -3,2l0,-1l0,0" id="svg_1" stroke-width="1.5" stroke="#000" fill="none"/><path d="m199,42.4375c0,0 -1,0 -2,0c-3,0 -9.939423,-1.164433 -18,-1c-6.081497,0.124062 -8.458801,2.693436 -9,4c-0.765366,1.847759 0,4 0,7c0,4 0,10 0,16c0,7 -1.913422,12.3806 0,17c1.082397,2.613129 3.761078,4.415894 7,6c2.840729,1.389351 5,1 7,1c3,0 6.014603,0.295616 9,0c5.074203,-0.502449 8,-2 11,-2c4,0 7,0 9,0c3,0 4,0 4,1c0,1 0,2 0,4c0,2 -1.950211,5.040245 -6,10c-4.939758,6.04969 -9.885605,9.099701 -16,16c-2.391205,2.698547 -5,4 -6,5l0,0l-1,0" id="svg_2" stroke-width="1.5" stroke="#000" fill="none"/><path d="m260,44.4375c-1,0 -1,0 -1,1c0,1 0,3 0,6c0,4 0,11 0,17c0,5 0,9 0,13c0,4 0,8 0,11c0,3 1.190277,4.881523 3,8c1.122345,1.933998 3,4 6,7c2,2 3.925781,2.497551 9,3c4.975677,0.492691 10.133759,1.148766 15,0c4.352509,-1.027489 7.486908,-3.080521 10,-5c2.865356,-2.188545 4.679474,-4.571106 7,-9c1.467621,-2.801079 2.486267,-4.823746 3,-7c0.459503,-1.946495 1,-4 1,-5c0,-1 0.320374,-3.025826 0,-5c-0.506531,-3.121445 -1.118927,-6.215401 -3,-12c-1.382996,-4.252922 -3.610657,-9.159279 -5,-12c-1.584106,-3.238922 -4,-7 -6,-10c-2,-3 -4.881531,-6.190277 -8,-8c-3.867981,-2.244686 -6.963837,-3.115868 -10,-4c-3.958679,-1.152771 -7,-1 -9,-1c-2,0 -4,0 -6,0c-2,0 -4,2 -6,4c-2,2 -3.083984,3.960171 -4,6c-2.20607,4.912563 -2,8 -2,10c0,2 0,3 0,4l0,0l0,1l0,0" id="svg_3" stroke-width="1.5" stroke="#000" fill="none"/><path d="m132,180.4375c0,0 0,0 0,3c0,3 0.106262,8.592865 5,15c2.575256,3.371658 5.519287,6.558197 8,10c1.307449,1.813995 2,3 3,3c0,0 0,0 0,0c0,-1 0,-2 0,-3c0,-2 0,-3 0,-5c0,-4 0,-8 0,-12c0,-3 0,-8 0,-10c0,-2 1,-3 1,-3c0,0 0,1 0,1c0,0 0.61731,2.076126 1,3c0.541199,1.306564 1.346191,2.70546 3,5c2.614899,3.627991 4.746399,7.161194 8,12c2.789948,4.149246 4.714127,7.21167 7,10c0.896591,1.093674 1,1 2,1c1,0 1,0 1,0c0,-1 0,-2 0,-4c0,-1 0,-3 0,-6c0,-2 0,-12 0,-21c0,-9 0,-16 0,-21c0,-3 0,-4 0,-4l0,0l0,0" id="svg_4" stroke-width="1.5" stroke="#000" fill="none"/><path stroke="#000" d="m188.999998,189.4375c0,-1 0,-2 0,-6c0,-3 0,-8 0,-13c0,-3 0,-5 0,-7c0,-2 0,-4 0,-4c0,-1 0.32695,-1.707108 1.116279,-1c0.789329,0.707108 0.77308,2.186005 2.232558,4c2.769168,3.441803 8.690135,7.227325 13.39535,11c5.325934,4.270386 14.511629,10 18.976745,13c4.465117,3 8.838254,5.386871 10.046512,8c0.427189,0.923874 1.116279,1 2.232558,2c0,0 0,-1 0,-1c0,0 0,-1 -1.116279,-1c0,0 0,-1 0,-1c-1.116279,0 -1.116279,0 -1.116279,0c-1.116279,0 -1.116279,0 -2.232558,0l0,0" id="svg_5" stroke-width="1.5" fill="none"/><path d="m191,180.4375c0,-1 -1,-1 0,-1c1,0 2,0 5,0c3,0 6,0 9,0c1,0 3,0 4,0c1,0 2,0 2,0c1,0 1,-1 1,-1c1,0 1,0 1,0l0,0l1,0l0,0" id="svg_6" fill-opacity="null" stroke-opacity="null" stroke-width="1.5" stroke="#000" fill="none"/><path d="m292,150.4375c0,0 -1,0 -3,0c-1,0 -3,0 -4,0c-2,0 -3,0 -5,0c-1,0 -2.852722,0.173096 -4,1c-1.813995,1.307449 -2.292908,2.292892 -3,3c-0.707092,0.707108 -1.770233,1.026749 -2,2c-0.513733,2.176254 -2,3 -2,3c0,1 0,2 0,2c0,1 0,1 0,1c0,1 0.474274,1.149353 1,2c1.175568,1.902115 3.186005,2.692551 5,4c1.147278,0.826904 2,2 3,3c1,1 3,1 3,1c1,0 3.026764,0.229752 4,0c2.176239,-0.513748 4.823761,-1.486252 7,-2c2.919739,-0.689255 5,0 6,0c2,0 3,0 4,0c0,0 1,0 1,1c0,0 0,1 0,1c0,0 0,1 0,1c0,1 0,2 -1,3c-1,1 -2.520172,3.323669 -4,5c-2.386169,2.703003 -5.053497,3.540497 -7,4c-2.176239,0.513748 -4.693451,2.458801 -6,3c-2.771637,1.148056 -5,0 -7,0l-2,0l-1,0" id="svg_7" fill-opacity="null" stroke-opacity="null" stroke-width="1.5" stroke="#000" fill="none"/><path d="m157,269.4375c0,0 0,0 0,2c0,2 0.54863,3.769928 2,8c1.654816,4.823029 3,8 5,13c2,5 3.493454,7.878571 4,11c0.160187,0.987091 1.144287,3.934143 2,6c1.210144,2.92157 2.918732,7.345062 5,12c2.040848,4.564545 5.513,7.593994 7,10c1.662506,2.690002 1.61731,4.076111 2,5c0.541199,1.306549 2,1 2,2c0,1 0.292892,1.292908 1,2c0.707108,0.707092 0,1 0,2c0,0 -0.61731,-1.076111 -1,-2c-0.541199,-1.306549 -1.458801,-1.693451 -2,-3c-0.38269,-0.923889 -0.458801,-1.693451 -1,-3c-0.38269,-0.923889 -0.770248,-2.026764 -1,-3c-0.513748,-2.176239 -1.337494,-4.309998 -3,-7c-1.487,-2.406006 -3.493454,-4.878571 -4,-8c-0.160187,-0.987091 -0.234634,-3.152252 -1,-5c-0.541199,-1.306549 -1.61731,-3.076111 -2,-4c-0.541199,-1.306549 -1,-3 -1,-4c0,-1 0,-3 0,-3c0,-1 0,-1 0,-1c1,0 2.076126,0.38269 3,0c1.306564,-0.541199 3,-2 5,-3c2,-1 5.07843,-2.789856 8,-4c6.197571,-2.567108 8.310013,-3.337494 11,-5c1.203003,-0.7435 1.292892,-0.292908 2,-1c0.707108,-0.707092 0,-1 0,-1c0,0 -1,-1 -1,-1c-1,-1 -1.61731,-1.076111 -2,-2c-0.541199,-1.306549 -2.346191,-2.705475 -4,-5c-1.307449,-1.813995 -3.346191,-4.705475 -5,-7c-1.307449,-1.813995 -2,-3 -3,-5c-1,-2 -1.292892,-2.292908 -2,-3c-0.707108,-0.707092 -1,-2 -1,-2c0,-1 0,-1 0,-1c1,1 1.770248,3.026764 2,4c0.513748,2.176239 2,3 3,5c1,2 3,5 6,9c3,4 6.518707,8.541229 10,13c3.58844,4.595978 4,8 5,10c1,2 1.337494,3.309998 3,6c0.7435,1.203003 1.692551,4.186005 3,6c0.826904,1.147278 1.292892,2.292908 2,3c0.707108,0.707092 1,1 1,2l0,0l0,0l0,0" id="svg_8" fill-opacity="null" stroke-opacity="null" stroke-width="1.5" stroke="#000" fill="none"/><path d="m234,241.4375c0,0 -1,0 -1,0c0,0 -1,0 -2,0c-2,0 -3,0 -4,1c-1,1 -1.693436,1.458801 -3,2c-0.923874,0.38269 -1.076126,-0.38269 -2,0c-1.306564,0.541199 -2.292892,0.292892 -3,1c-0.707108,0.707108 -0.076126,0.61731 -1,1c-1.306564,0.541199 -0.693436,1.458801 -2,2c-0.923874,0.38269 -0.693436,0.458801 -2,1c-0.923874,0.38269 -1,0 -2,1c0,0 0,0 1,0c0,0 1,1 1,1c1,0 0.693436,0.458801 2,1c0.923874,0.38269 1.186005,0.692551 3,2c1.147263,0.826904 1.714127,4.21167 4,7c2.689789,3.281006 5.190277,6.881531 7,10c1.122345,1.93399 1.692551,3.186005 3,5c0.826904,1.147278 1.458801,1.693451 2,3c0.38269,0.923889 1,2 2,4c1,2 1.692551,4.186005 3,6c0.826904,1.147278 2,3 3,5c1,2 0.692551,4.186005 2,6c0.826904,1.147278 1.61731,3.076111 2,4c0.541199,1.306549 1.458801,0.693451 2,2c0.38269,0.923889 0,1 1,2c0,0 0.292892,1.292908 1,2c0.707108,0.707092 1.076126,0.61731 2,1c1.306564,0.541199 0.292892,1.292908 1,2c0.707108,0.707092 1,0 1,0c0,0 0,0 1,0c0,0 0,0 0,0c0,0 0,-1 0,-2c0,0 0.292908,-0.292908 1,-1c0.707092,-0.707092 -0.147278,-1.173096 1,-2c1.813995,-1.307465 2.852722,-1.173096 4,-2c1.813995,-1.307465 3.186005,-0.692535 5,-2c1.147278,-0.826904 3.152252,-1.234619 5,-2c1.306549,-0.541199 2,-2 4,-2c1,0 2,-1 2,-1c1,0 1,0 1,0c0,0 -1,0 -2,0c-1,0 -2,0 -3,0c-1,0 -0.823761,0.486267 -3,1c-0.973236,0.229767 -2.076111,0.61731 -3,1c-1.306549,0.541199 -2.076111,1.61731 -3,2c-1.306549,0.541199 -1.076111,0.61731 -2,1c-1.306549,0.541199 -2.292908,1.292908 -3,2c-0.707092,0.707092 0.306549,1.458801 -1,2c-0.923889,0.38269 -1,1 -2,1c0,0 -1,0 -1,0c0,0 -1,0 -1,0c-1,0 -1,0 -2,0c0,0 0,-1 0,-1c-1,-1 -1,-1 -1,-2c0,0 0,-1 0,-2c0,0 -1,-1 -1,-1c0,-1 -0.292892,-2.292908 -1,-3c-0.707108,-0.707092 -1,-1 -2,-2c-1,-1 -2.173096,-1.852722 -3,-3c-1.307449,-1.813995 -2.692551,-3.186005 -4,-5c-0.826904,-1.147278 -3,-3 -4,-4c-1,-1 -2,-3 -3,-4c-1,-1 -1.692551,-2.186005 -3,-4c-0.826904,-1.147278 -2,-2 -2,-2c0,-1 0,-1 0,-1c0,0 0,-1 0,-1c0,0 1,0 1,0c1,0 1,0 2,0c0,0 1,0 2,-1c0,0 0.852737,-0.173096 2,-1c1.813995,-1.307465 3,-1 5,-2c0,0 1.186005,-0.692535 3,-2c1.147263,-0.826904 2,-1 2,-1c1,-1 1.292892,-1.292908 2,-2c0.707108,-0.707092 1.693436,-1.458801 3,-2c0.923874,-0.38269 1,-1 2,-1c0,0 0.292892,-0.292908 1,-1c0.707108,-0.707092 1,-1 1,-1c1,-1 1,-1 1,-1c0,0 0,0 -1,0l0,0" id="svg_9" fill-opacity="null" stroke-opacity="null" stroke-width="1.5" stroke="#000" fill="none"/><path d="m278,221.4375c0,0 -0.307465,2.186005 1,4c1.653809,2.29454 3.371338,3.74675 6,8c1.175568,1.902115 3.07193,4.953278 5,8c3.118103,4.927216 6.07193,8.953278 8,12c3.118103,4.927216 4.789856,8.07843 6,11c0.855713,2.065857 1.692535,3.186005 3,5c0.826904,1.147278 1.917603,3.386871 3,6c0.765381,1.847748 2.173096,4.852722 3,6c1.307465,1.813995 1.458801,2.693451 2,4c0.38269,0.923889 -1,2 0,2c1,0 0.765381,-1.152252 0,-3c-1.082397,-2.613129 -2,-4 -3,-5c-1,-1 -0.61731,-2.076111 -1,-3c-0.541199,-1.306549 -0.789856,-2.07843 -2,-5c-0.855713,-2.065857 -2.632965,-5.197998 -6,-11c-1.809723,-3.118469 -3.346191,-5.70546 -5,-8c-1.307465,-1.813995 -1.692535,-3.186005 -3,-5c-0.826904,-1.147263 -2.418854,-2.418854 -4,-4c-1.581146,-1.581146 -1.346191,-2.70546 -3,-5c-1.307465,-1.813995 -1.770233,-4.026749 -2,-5c-0.513733,-2.176254 -1.61731,-4.076126 -2,-5c-0.541199,-1.306564 -1.458801,-2.693436 -2,-4c-0.38269,-0.923874 -0.486267,-1.823746 -1,-4c-0.229767,-0.973251 0,-2 0,-3c0,-1 0.292908,-2.292892 1,-3c0.707092,-0.707108 2.026764,-0.770248 3,-1c2.176239,-0.513748 4,-2 8,-4c2,-1 4.868286,-2.288589 9,-4c2.92157,-1.210144 6.132996,-1.569504 10,-3c2.097168,-0.775803 4,-2 6,-2c1,0 3,0 5,0c1,0 1,0 2,0c0,0 1,1 1,1c0,1 0,2 0,2c0,1 0,2 0,3c0,1 -0.458801,2.693436 -1,4c-0.765381,1.847763 -1,3 -2,4c-1,1 -2.692535,2.186005 -4,4c-1.653809,2.29454 -3,3 -5,5c-2,2 -5.21167,4.714127 -8,7c-3.281006,2.689789 -5.186005,4.692551 -7,6c-1.147278,0.826904 -2,2 -3,3c-1,1 -1,1 -1,2c0,0 0,1 0,1c1,0 2,-1 3,-1c1,0 3,0 4,0c3,0 7.022491,-0.366547 10,0c4.092224,0.503769 10.963287,2.160416 15,3c5.955322,1.238632 12.025208,2.881332 17,4c4.022644,0.904556 8,3 11,4c3,1 7.07843,1.789856 10,3c2.065857,0.855713 4.186005,0.692535 6,2c1.147278,0.826904 2,1 3,2c0,0 0.292908,0.292908 1,1c0.707092,0.707092 1,0 1,0c0,-1 -1,-3 -3,-5l-1,-1" id="svg_10" fill-opacity="null" stroke-opacity="null" stroke-width="1.5" stroke="#000" fill="none"/><path d="m386,177.4375c0,0 -1,0 -3,0c-1,0 -4.22937,0.331985 -8,2c-3.297333,1.458633 -7.07843,3.789856 -10,5c-2.065857,0.855713 -2.823761,2.486252 -5,3c-0.973236,0.229752 -2,1 -3,2c0,0 0,0 0,0c1,1 1.152252,0.234634 3,1c1.306549,0.541199 2.881531,1.190277 6,3c3.867981,2.24469 8.404022,4.41156 13,8c3.344086,2.610977 7.222717,6.723984 11,10c3.205109,2.779785 6.210052,5.850754 9,10c3.253601,4.838806 5.144287,7.934143 6,10c1.210144,2.92157 2.486267,3.823746 3,6c0.229767,0.973251 0,2 1,3c0,0 0,0 0,-1c0,0 0,0 0,0c0,-1 0,-1 0,-2c0,0 0.292908,-1.292892 1,-2c0.707092,-0.707108 2,-1 3,-2c2,-2 4.458069,-4.664459 8,-7c4.495758,-2.964478 8.920349,-5.167969 13,-7c4.912567,-2.20607 8.823761,-4.486252 11,-5c0.973236,-0.229752 1,0 1,0c0,0 -1,0 -2,0c-1,0 -3,0 -4,0c-3,0 -3.693451,0.458801 -5,1c-0.923889,0.38269 -2.693451,0.458801 -4,1c-0.923889,0.38269 -2.292908,0.292892 -3,1c-0.707092,0.707108 -1.292908,1.292892 -2,2c-0.707092,0.707108 -1,1 -1,1c-1,1 -1,1 -2,2c-1,1 -2.173096,1.852737 -3,3c-1.307465,1.813995 -1.692535,2.186005 -3,4c-0.826904,1.147263 -3,2 -3,2c-1,1 -1.292908,2.292892 -2,3c-0.707092,0.707108 -2,1 -2,1c-1,1 -1,1 -1,1c0,0 -1,0 -1,0c0,0 0,0 -1,-1c-1,-1 -0.692535,-2.186005 -2,-4c-0.826904,-1.147263 -3,-4 -5,-6c-2,-2 -2.418854,-3.418854 -4,-5c-1.581146,-1.581146 -4,-3 -5,-4c-1,-1 -1.458801,-0.693436 -2,-2c-0.38269,-0.923874 -1,-1 -2,-1c0,0 -1,-1 -1,-1c0,0 0,0 0,0c0,-1 1.076111,-0.61731 2,-1c1.306549,-0.541199 2.152252,-1.234634 4,-2c1.306549,-0.541199 2.06601,-1.877655 4,-3c3.118469,-1.809723 5.812653,-5.206802 8,-7c2.78833,-2.285873 6.611053,-2.92807 9,-5c1.68924,-1.465073 3,-3 4,-3c1,0 2,-1 2,-1c1,0 1.292908,-0.292892 2,-1c0.707092,-0.707108 2,0 2,0c1,0 1,0 0,0l0,0" id="svg_11" fill-opacity="null" stroke-opacity="null" stroke-width="1.5" stroke="#000" fill="none"/><polyline stroke-linecap="round" id="svg_12" points="516,-113.5625 516,-113.5625 " fill-opacity="null" stroke-opacity="null" stroke-width="1.5" stroke="#000" fill="none"/></g></svg>
